<svg width="180" height="79" viewBox="0 0 180 79" fill="none" xmlns="http://www.w3.org/2000/svg">
<path d="M64.286 51.324C62.828 51.324 61.469 51.09 60.209 50.622C58.967 50.136 57.887 49.452 56.969 48.57C56.051 47.688 55.331 46.653 54.809 45.465C54.305 44.277 54.053 42.972 54.053 41.55C54.053 40.128 54.305 38.823 54.809 37.635C55.331 36.447 56.051 35.412 56.969 34.53C57.905 33.648 58.994 32.973 60.236 32.505C61.478 32.019 62.837 31.776 64.313 31.776C65.951 31.776 67.427 32.064 68.741 32.64C70.073 33.198 71.189 34.026 72.089 35.124L69.281 37.716C68.633 36.978 67.913 36.429 67.121 36.069C66.329 35.691 65.465 35.502 64.529 35.502C63.647 35.502 62.837 35.646 62.099 35.934C61.361 36.222 60.722 36.636 60.182 37.176C59.642 37.716 59.219 38.355 58.913 39.093C58.625 39.831 58.481 40.65 58.481 41.55C58.481 42.45 58.625 43.269 58.913 44.007C59.219 44.745 59.642 45.384 60.182 45.924C60.722 46.464 61.361 46.878 62.099 47.166C62.837 47.454 63.647 47.598 64.529 47.598C65.465 47.598 66.329 47.418 67.121 47.058C67.913 46.68 68.633 46.113 69.281 45.357L72.089 47.949C71.189 49.047 70.073 49.884 68.741 50.46C67.427 51.036 65.942 51.324 64.286 51.324ZM81.1568 51.216C79.6088 51.216 78.2318 50.892 77.0258 50.244C75.8378 49.596 74.8928 48.714 74.1908 47.598C73.5068 46.464 73.1648 45.177 73.1648 43.737C73.1648 42.279 73.5068 40.992 74.1908 39.876C74.8928 38.742 75.8378 37.86 77.0258 37.23C78.2318 36.582 79.6088 36.258 81.1568 36.258C82.6868 36.258 84.0548 36.582 85.2608 37.23C86.4668 37.86 87.4118 38.733 88.0958 39.849C88.7798 40.965 89.1218 42.261 89.1218 43.737C89.1218 45.177 88.7798 46.464 88.0958 47.598C87.4118 48.714 86.4668 49.596 85.2608 50.244C84.0548 50.892 82.6868 51.216 81.1568 51.216ZM81.1568 47.76C81.8588 47.76 82.4888 47.598 83.0468 47.274C83.6048 46.95 84.0458 46.491 84.3698 45.897C84.6938 45.285 84.8558 44.565 84.8558 43.737C84.8558 42.891 84.6938 42.171 84.3698 41.577C84.0458 40.983 83.6048 40.524 83.0468 40.2C82.4888 39.876 81.8588 39.714 81.1568 39.714C80.4548 39.714 79.8248 39.876 79.2668 40.2C78.7088 40.524 78.2588 40.983 77.9168 41.577C77.5928 42.171 77.4308 42.891 77.4308 43.737C77.4308 44.565 77.5928 45.285 77.9168 45.897C78.2588 46.491 78.7088 46.95 79.2668 47.274C79.8248 47.598 80.4548 47.76 81.1568 47.76ZM98.8492 51.216C97.3012 51.216 95.9242 50.892 94.7182 50.244C93.5302 49.596 92.5852 48.714 91.8832 47.598C91.1992 46.464 90.8572 45.177 90.8572 43.737C90.8572 42.279 91.1992 40.992 91.8832 39.876C92.5852 38.742 93.5302 37.86 94.7182 37.23C95.9242 36.582 97.3012 36.258 98.8492 36.258C100.379 36.258 101.747 36.582 102.953 37.23C104.159 37.86 105.104 38.733 105.788 39.849C106.472 40.965 106.814 42.261 106.814 43.737C106.814 45.177 106.472 46.464 105.788 47.598C105.104 48.714 104.159 49.596 102.953 50.244C101.747 50.892 100.379 51.216 98.8492 51.216ZM98.8492 47.76C99.5512 47.76 100.181 47.598 100.739 47.274C101.297 46.95 101.738 46.491 102.062 45.897C102.386 45.285 102.548 44.565 102.548 43.737C102.548 42.891 102.386 42.171 102.062 41.577C101.738 40.983 101.297 40.524 100.739 40.2C100.181 39.876 99.5512 39.714 98.8492 39.714C98.1472 39.714 97.5172 39.876 96.9592 40.2C96.4012 40.524 95.9512 40.983 95.6092 41.577C95.2852 42.171 95.1232 42.891 95.1232 43.737C95.1232 44.565 95.2852 45.285 95.6092 45.897C95.9512 46.491 96.4012 46.95 96.9592 47.274C97.5172 47.598 98.1472 47.76 98.8492 47.76ZM113.113 48.03L113.221 42.9L119.998 36.474H125.02L118.513 43.089L116.326 44.871L113.113 48.03ZM109.63 51V30.966H113.842V51H109.63ZM120.457 51L115.543 44.898L118.189 41.631L125.56 51H120.457ZM127.454 51V36.474H131.666V51H127.454ZM129.56 34.449C128.786 34.449 128.156 34.224 127.67 33.774C127.184 33.324 126.941 32.766 126.941 32.1C126.941 31.434 127.184 30.876 127.67 30.426C128.156 29.976 128.786 29.751 129.56 29.751C130.334 29.751 130.964 29.967 131.45 30.399C131.936 30.813 132.179 31.353 132.179 32.019C132.179 32.721 131.936 33.306 131.45 33.774C130.982 34.224 130.352 34.449 129.56 34.449ZM142.784 51.216C141.128 51.216 139.67 50.892 138.41 50.244C137.168 49.596 136.205 48.714 135.521 47.598C134.837 46.464 134.495 45.177 134.495 43.737C134.495 42.279 134.828 40.992 135.494 39.876C136.178 38.742 137.105 37.86 138.275 37.23C139.445 36.582 140.768 36.258 142.244 36.258C143.666 36.258 144.944 36.564 146.078 37.176C147.23 37.77 148.139 38.634 148.805 39.768C149.471 40.884 149.804 42.225 149.804 43.791C149.804 43.953 149.795 44.142 149.777 44.358C149.759 44.556 149.741 44.745 149.723 44.925H137.924V42.468H147.509L145.889 43.197C145.889 42.441 145.736 41.784 145.43 41.226C145.124 40.668 144.701 40.236 144.161 39.93C143.621 39.606 142.991 39.444 142.271 39.444C141.551 39.444 140.912 39.606 140.354 39.93C139.814 40.236 139.391 40.677 139.085 41.253C138.779 41.811 138.626 42.477 138.626 43.251V43.899C138.626 44.691 138.797 45.393 139.139 46.005C139.499 46.599 139.994 47.058 140.624 47.382C141.272 47.688 142.028 47.841 142.892 47.841C143.666 47.841 144.341 47.724 144.917 47.49C145.511 47.256 146.051 46.905 146.537 46.437L148.778 48.867C148.112 49.623 147.275 50.208 146.267 50.622C145.259 51.018 144.098 51.216 142.784 51.216ZM157.495 51.216C156.253 51.216 155.056 51.072 153.904 50.784C152.77 50.478 151.87 50.1 151.204 49.65L152.608 46.626C153.274 47.04 154.057 47.382 154.957 47.652C155.875 47.904 156.775 48.03 157.657 48.03C158.629 48.03 159.313 47.913 159.709 47.679C160.123 47.445 160.33 47.121 160.33 46.707C160.33 46.365 160.168 46.113 159.844 45.951C159.538 45.771 159.124 45.636 158.602 45.546C158.08 45.456 157.504 45.366 156.874 45.276C156.262 45.186 155.641 45.069 155.011 44.925C154.381 44.763 153.805 44.529 153.283 44.223C152.761 43.917 152.338 43.503 152.014 42.981C151.708 42.459 151.555 41.784 151.555 40.956C151.555 40.038 151.816 39.228 152.338 38.526C152.878 37.824 153.652 37.275 154.66 36.879C155.668 36.465 156.874 36.258 158.278 36.258C159.268 36.258 160.276 36.366 161.302 36.582C162.328 36.798 163.183 37.113 163.867 37.527L162.463 40.524C161.761 40.11 161.05 39.831 160.33 39.687C159.628 39.525 158.944 39.444 158.278 39.444C157.342 39.444 156.658 39.57 156.226 39.822C155.794 40.074 155.578 40.398 155.578 40.794C155.578 41.154 155.731 41.424 156.037 41.604C156.361 41.784 156.784 41.928 157.306 42.036C157.828 42.144 158.395 42.243 159.007 42.333C159.637 42.405 160.267 42.522 160.897 42.684C161.527 42.846 162.094 43.08 162.598 43.386C163.12 43.674 163.543 44.079 163.867 44.601C164.191 45.105 164.353 45.771 164.353 46.599C164.353 47.499 164.083 48.3 163.543 49.002C163.003 49.686 162.22 50.226 161.194 50.622C160.186 51.018 158.953 51.216 157.495 51.216Z" fill="#FFD696"/>
<path d="M64.451 26.324C62.939 26.324 61.49 26.126 60.104 25.73C58.718 25.316 57.602 24.785 56.756 24.137L58.241 20.843C59.051 21.419 60.005 21.896 61.103 22.274C62.219 22.634 63.344 22.814 64.478 22.814C65.342 22.814 66.035 22.733 66.557 22.571C67.097 22.391 67.493 22.148 67.745 21.842C67.997 21.536 68.123 21.185 68.123 20.789C68.123 20.285 67.925 19.889 67.529 19.601C67.133 19.295 66.611 19.052 65.963 18.872C65.315 18.674 64.595 18.494 63.803 18.332C63.029 18.152 62.246 17.936 61.454 17.684C60.68 17.432 59.969 17.108 59.321 16.712C58.673 16.316 58.142 15.794 57.728 15.146C57.332 14.498 57.134 13.67 57.134 12.662C57.134 11.582 57.422 10.601 57.998 9.719C58.592 8.819 59.474 8.108 60.644 7.586C61.832 7.046 63.317 6.776 65.099 6.776C66.287 6.776 67.457 6.92 68.609 7.208C69.761 7.478 70.778 7.892 71.66 8.45L70.31 11.771C69.428 11.267 68.546 10.898 67.664 10.664C66.782 10.412 65.918 10.286 65.072 10.286C64.226 10.286 63.533 10.385 62.993 10.583C62.453 10.781 62.066 11.042 61.832 11.366C61.598 11.672 61.481 12.032 61.481 12.446C61.481 12.932 61.679 13.328 62.075 13.634C62.471 13.922 62.993 14.156 63.641 14.336C64.289 14.516 65 14.696 65.774 14.876C66.566 15.056 67.349 15.263 68.123 15.497C68.915 15.731 69.635 16.046 70.283 16.442C70.931 16.838 71.453 17.36 71.849 18.008C72.263 18.656 72.47 19.475 72.47 20.465C72.47 21.527 72.173 22.499 71.579 23.381C70.985 24.263 70.094 24.974 68.906 25.514C67.736 26.054 66.251 26.324 64.451 26.324ZM82.3708 26.216C80.7148 26.216 79.2568 25.892 77.9968 25.244C76.7548 24.596 75.7918 23.714 75.1078 22.598C74.4238 21.464 74.0818 20.177 74.0818 18.737C74.0818 17.279 74.4148 15.992 75.0808 14.876C75.7648 13.742 76.6918 12.86 77.8618 12.23C79.0318 11.582 80.3548 11.258 81.8308 11.258C83.2528 11.258 84.5308 11.564 85.6648 12.176C86.8168 12.77 87.7258 13.634 88.3918 14.768C89.0578 15.884 89.3908 17.225 89.3908 18.791C89.3908 18.953 89.3818 19.142 89.3638 19.358C89.3458 19.556 89.3278 19.745 89.3098 19.925H77.5108V17.468H87.0958L85.4758 18.197C85.4758 17.441 85.3228 16.784 85.0168 16.226C84.7108 15.668 84.2878 15.236 83.7478 14.93C83.2078 14.606 82.5778 14.444 81.8578 14.444C81.1378 14.444 80.4988 14.606 79.9408 14.93C79.4008 15.236 78.9778 15.677 78.6718 16.253C78.3658 16.811 78.2128 17.477 78.2128 18.251V18.899C78.2128 19.691 78.3838 20.393 78.7258 21.005C79.0858 21.599 79.5808 22.058 80.2108 22.382C80.8588 22.688 81.6148 22.841 82.4788 22.841C83.2528 22.841 83.9278 22.724 84.5038 22.49C85.0978 22.256 85.6378 21.905 86.1238 21.437L88.3648 23.867C87.6988 24.623 86.8618 25.208 85.8538 25.622C84.8458 26.018 83.6848 26.216 82.3708 26.216ZM99.215 26.216C97.649 26.216 96.254 25.901 95.03 25.271C93.806 24.623 92.843 23.732 92.141 22.598C91.457 21.464 91.115 20.177 91.115 18.737C91.115 17.279 91.457 15.992 92.141 14.876C92.843 13.742 93.806 12.86 95.03 12.23C96.254 11.582 97.649 11.258 99.215 11.258C100.745 11.258 102.077 11.582 103.211 12.23C104.345 12.86 105.182 13.769 105.722 14.957L102.455 16.712C102.077 16.028 101.6 15.524 101.024 15.2C100.466 14.876 99.854 14.714 99.188 14.714C98.468 14.714 97.82 14.876 97.244 15.2C96.668 15.524 96.209 15.983 95.867 16.577C95.543 17.171 95.381 17.891 95.381 18.737C95.381 19.583 95.543 20.303 95.867 20.897C96.209 21.491 96.668 21.95 97.244 22.274C97.82 22.598 98.468 22.76 99.188 22.76C99.854 22.76 100.466 22.607 101.024 22.301C101.6 21.977 102.077 21.464 102.455 20.762L105.722 22.544C105.182 23.714 104.345 24.623 103.211 25.271C102.077 25.901 100.745 26.216 99.215 26.216ZM114.276 26.216C113.07 26.216 111.99 25.982 111.036 25.514C110.1 25.046 109.371 24.335 108.849 23.381C108.327 22.409 108.066 21.176 108.066 19.682V11.474H112.278V19.061C112.278 20.267 112.53 21.158 113.034 21.734C113.556 22.292 114.285 22.571 115.221 22.571C115.869 22.571 116.445 22.436 116.949 22.166C117.453 21.878 117.849 21.446 118.137 20.87C118.425 20.276 118.569 19.538 118.569 18.656V11.474H122.781V26H118.785V22.004L119.514 23.165C119.028 24.173 118.308 24.938 117.354 25.46C116.418 25.964 115.392 26.216 114.276 26.216ZM126.683 26V11.474H130.706V15.578L130.139 14.39C130.571 13.364 131.264 12.59 132.218 12.068C133.172 11.528 134.333 11.258 135.701 11.258V15.146C135.521 15.128 135.359 15.119 135.215 15.119C135.071 15.101 134.918 15.092 134.756 15.092C133.604 15.092 132.668 15.425 131.948 16.091C131.246 16.739 130.895 17.756 130.895 19.142V26H126.683ZM145.309 26.216C143.653 26.216 142.195 25.892 140.935 25.244C139.693 24.596 138.73 23.714 138.046 22.598C137.362 21.464 137.02 20.177 137.02 18.737C137.02 17.279 137.353 15.992 138.019 14.876C138.703 13.742 139.63 12.86 140.8 12.23C141.97 11.582 143.293 11.258 144.769 11.258C146.191 11.258 147.469 11.564 148.603 12.176C149.755 12.77 150.664 13.634 151.33 14.768C151.996 15.884 152.329 17.225 152.329 18.791C152.329 18.953 152.32 19.142 152.302 19.358C152.284 19.556 152.266 19.745 152.248 19.925H140.449V17.468H150.034L148.414 18.197C148.414 17.441 148.261 16.784 147.955 16.226C147.649 15.668 147.226 15.236 146.686 14.93C146.146 14.606 145.516 14.444 144.796 14.444C144.076 14.444 143.437 14.606 142.879 14.93C142.339 15.236 141.916 15.677 141.61 16.253C141.304 16.811 141.151 17.477 141.151 18.251V18.899C141.151 19.691 141.322 20.393 141.664 21.005C142.024 21.599 142.519 22.058 143.149 22.382C143.797 22.688 144.553 22.841 145.417 22.841C146.191 22.841 146.866 22.724 147.442 22.49C148.036 22.256 148.576 21.905 149.062 21.437L151.303 23.867C150.637 24.623 149.8 25.208 148.792 25.622C147.784 26.018 146.623 26.216 145.309 26.216Z" fill="white"/>
<path d="M55.241 73V54.1H58.859L66.905 67.438H64.988L72.899 54.1H76.49L76.544 73H72.44L72.413 60.391H73.169L66.851 71.002H64.88L58.427 60.391H59.345V73H55.241ZM89.6411 73V70.165L89.3711 69.544V64.468C89.3711 63.568 89.0921 62.866 88.5341 62.362C87.9941 61.858 87.1571 61.606 86.0231 61.606C85.2491 61.606 84.4841 61.732 83.7281 61.984C82.9901 62.218 82.3601 62.542 81.8381 62.956L80.3261 60.013C81.1181 59.455 82.0721 59.023 83.1881 58.717C84.3041 58.411 85.4381 58.258 86.5901 58.258C88.8041 58.258 90.5231 58.78 91.7471 59.824C92.9711 60.868 93.5831 62.497 93.5831 64.711V73H89.6411ZM85.2131 73.216C84.0791 73.216 83.1071 73.027 82.2971 72.649C81.4871 72.253 80.8661 71.722 80.4341 71.056C80.0021 70.39 79.7861 69.643 79.7861 68.815C79.7861 67.951 79.9931 67.195 80.4071 66.547C80.8391 65.899 81.5141 65.395 82.4321 65.035C83.3501 64.657 84.5471 64.468 86.0231 64.468H89.8841V66.925H86.4821C85.4921 66.925 84.8081 67.087 84.4301 67.411C84.0701 67.735 83.8901 68.14 83.8901 68.626C83.8901 69.166 84.0971 69.598 84.5111 69.922C84.9431 70.228 85.5281 70.381 86.2661 70.381C86.9681 70.381 87.5981 70.219 88.1561 69.895C88.7141 69.553 89.1191 69.058 89.3711 68.41L90.0191 70.354C89.7131 71.29 89.1551 72.001 88.3451 72.487C87.5351 72.973 86.4911 73.216 85.2131 73.216ZM106.224 58.258C107.376 58.258 108.402 58.492 109.302 58.96C110.22 59.41 110.94 60.112 111.462 61.066C111.984 62.002 112.245 63.208 112.245 64.684V73H108.033V65.332C108.033 64.162 107.772 63.298 107.25 62.74C106.746 62.182 106.026 61.903 105.09 61.903C104.424 61.903 103.821 62.047 103.281 62.335C102.759 62.605 102.345 63.028 102.039 63.604C101.751 64.18 101.607 64.918 101.607 65.818V73H97.3952V58.474H101.418V62.497L100.662 61.282C101.184 60.31 101.931 59.563 102.903 59.041C103.875 58.519 104.982 58.258 106.224 58.258ZM124.973 73V70.165L124.703 69.544V64.468C124.703 63.568 124.424 62.866 123.866 62.362C123.326 61.858 122.489 61.606 121.355 61.606C120.581 61.606 119.816 61.732 119.06 61.984C118.322 62.218 117.692 62.542 117.17 62.956L115.658 60.013C116.45 59.455 117.404 59.023 118.52 58.717C119.636 58.411 120.77 58.258 121.922 58.258C124.136 58.258 125.855 58.78 127.079 59.824C128.303 60.868 128.915 62.497 128.915 64.711V73H124.973ZM120.545 73.216C119.411 73.216 118.439 73.027 117.629 72.649C116.819 72.253 116.198 71.722 115.766 71.056C115.334 70.39 115.118 69.643 115.118 68.815C115.118 67.951 115.325 67.195 115.739 66.547C116.171 65.899 116.846 65.395 117.764 65.035C118.682 64.657 119.879 64.468 121.355 64.468H125.216V66.925H121.814C120.824 66.925 120.14 67.087 119.762 67.411C119.402 67.735 119.222 68.14 119.222 68.626C119.222 69.166 119.429 69.598 119.843 69.922C120.275 70.228 120.86 70.381 121.598 70.381C122.3 70.381 122.93 70.219 123.488 69.895C124.046 69.553 124.451 69.058 124.703 68.41L125.351 70.354C125.045 71.29 124.487 72.001 123.677 72.487C122.867 72.973 121.823 73.216 120.545 73.216ZM139.664 78.454C138.296 78.454 136.973 78.283 135.695 77.941C134.435 77.617 133.382 77.122 132.536 76.456L134.21 73.432C134.822 73.936 135.596 74.332 136.532 74.62C137.486 74.926 138.422 75.079 139.34 75.079C140.834 75.079 141.914 74.746 142.58 74.08C143.264 73.414 143.606 72.424 143.606 71.11V68.923L143.876 65.278L143.822 61.606V58.474H147.818V70.57C147.818 73.27 147.116 75.259 145.712 76.537C144.308 77.815 142.292 78.454 139.664 78.454ZM139.016 72.298C137.666 72.298 136.442 72.01 135.344 71.434C134.264 70.84 133.391 70.021 132.725 68.977C132.077 67.915 131.753 66.682 131.753 65.278C131.753 63.856 132.077 62.623 132.725 61.579C133.391 60.517 134.264 59.698 135.344 59.122C136.442 58.546 137.666 58.258 139.016 58.258C140.24 58.258 141.32 58.51 142.256 59.014C143.192 59.5 143.921 60.265 144.443 61.309C144.965 62.335 145.226 63.658 145.226 65.278C145.226 66.88 144.965 68.203 144.443 69.247C143.921 70.273 143.192 71.038 142.256 71.542C141.32 72.046 140.24 72.298 139.016 72.298ZM139.853 68.842C140.591 68.842 141.248 68.698 141.824 68.41C142.4 68.104 142.85 67.681 143.174 67.141C143.498 66.601 143.66 65.98 143.66 65.278C143.66 64.558 143.498 63.937 143.174 63.415C142.85 62.875 142.4 62.461 141.824 62.173C141.248 61.867 140.591 61.714 139.853 61.714C139.115 61.714 138.458 61.867 137.882 62.173C137.306 62.461 136.847 62.875 136.505 63.415C136.181 63.937 136.019 64.558 136.019 65.278C136.019 65.98 136.181 66.601 136.505 67.141C136.847 67.681 137.306 68.104 137.882 68.41C138.458 68.698 139.115 68.842 139.853 68.842ZM158.947 73.216C157.291 73.216 155.833 72.892 154.573 72.244C153.331 71.596 152.368 70.714 151.684 69.598C151 68.464 150.658 67.177 150.658 65.737C150.658 64.279 150.991 62.992 151.657 61.876C152.341 60.742 153.268 59.86 154.438 59.23C155.608 58.582 156.931 58.258 158.407 58.258C159.829 58.258 161.107 58.564 162.241 59.176C163.393 59.77 164.302 60.634 164.968 61.768C165.634 62.884 165.967 64.225 165.967 65.791C165.967 65.953 165.958 66.142 165.94 66.358C165.922 66.556 165.904 66.745 165.886 66.925H154.087V64.468H163.672L162.052 65.197C162.052 64.441 161.899 63.784 161.593 63.226C161.287 62.668 160.864 62.236 160.324 61.93C159.784 61.606 159.154 61.444 158.434 61.444C157.714 61.444 157.075 61.606 156.517 61.93C155.977 62.236 155.554 62.677 155.248 63.253C154.942 63.811 154.789 64.477 154.789 65.251V65.899C154.789 66.691 154.96 67.393 155.302 68.005C155.662 68.599 156.157 69.058 156.787 69.382C157.435 69.688 158.191 69.841 159.055 69.841C159.829 69.841 160.504 69.724 161.08 69.49C161.674 69.256 162.214 68.905 162.7 68.437L164.941 70.867C164.275 71.623 163.438 72.208 162.43 72.622C161.422 73.018 160.261 73.216 158.947 73.216ZM168.771 73V58.474H172.794V62.578L172.227 61.39C172.659 60.364 173.352 59.59 174.306 59.068C175.26 58.528 176.421 58.258 177.789 58.258V62.146C177.609 62.128 177.447 62.119 177.303 62.119C177.159 62.101 177.006 62.092 176.844 62.092C175.692 62.092 174.756 62.425 174.036 63.091C173.334 63.739 172.983 64.756 172.983 66.142V73H168.771Z" fill="white"/>
<circle cx="24" cy="42" r="24" fill="#FFEBD5"/>
<path d="M27.7975 42.3768C26.2487 40.7133 24.7764 38.9924 23.5335 37.0803C22.654 35.7036 21.87 34.1548 20.9331 33.1988C20.0918 32.3192 19.5564 31.3823 19.2887 30.4263C17.4149 30.9617 16.1147 31.4206 14.432 33.1797C2.711 45.264 19.6903 63.9259 32.7306 51.6504C33.6867 50.7517 33.3425 49.6618 33.9161 48.6866C32.0997 46.5833 29.7096 44.4227 27.7975 42.3768Z" fill="#DE814B"/>
<path d="M32.7313 51.6506C20.647 61.4596 3.82068 45.8761 14.4327 33.1608C14.6048 32.9696 14.796 32.7593 14.9872 32.5681C17.4156 30.1588 20.1116 29.0307 22.7503 28.8586C23.018 28.8395 23.2283 29.0498 23.2474 29.2984C23.2857 30.8663 24.2991 31.918 25.7905 32.1283C26.0199 32.1665 26.1538 32.3769 26.0964 32.6063C25.9434 33.1034 25.8861 33.6388 25.8861 34.1933C25.9434 37.0041 28.2762 39.3177 31.0869 39.3368C31.6606 39.3368 32.2151 39.2603 32.7505 39.0883C32.9608 39.0118 33.1902 39.1456 33.2285 39.3751C33.5726 41.2489 35.2744 40.9047 36.0775 40.637C36.3069 40.5606 36.5555 40.6944 36.6129 40.9239C38.1808 46.641 32.7313 51.6506 32.7313 51.6506Z" fill="#F6B059"/>
<path d="M24.5277 39.5656C24.5277 40.9805 23.3804 41.9366 21.9655 41.9366C20.5506 41.9366 19.4033 40.9805 19.4033 39.5656C19.4033 38.1507 20.5506 37.0034 21.9655 37.0034C23.3804 37.0034 24.5277 38.1315 24.5277 39.5656Z" fill="#6D420D"/>
<path d="M32.5775 45.742C32.5775 46.8319 31.6979 47.7114 30.6081 47.7114C29.5182 47.7114 28.7725 47.0613 28.7725 45.9714C28.7725 44.8815 29.5182 43.7534 30.6081 43.7534C31.6979 43.7534 32.5775 44.6521 32.5775 45.742Z" fill="#6D420D"/>
<path d="M17.8556 43.3333C17.8556 44.1746 17.2437 44.6526 16.4024 44.6526C15.5611 44.6526 14.8345 44.1746 14.8345 43.3333C14.8345 42.492 15.5037 41.8228 16.345 41.8228C17.1863 41.8228 17.8556 42.492 17.8556 43.3333Z" fill="#6D420D"/>
<path d="M22.4814 48.4569C22.4814 48.8393 22.1755 49.1453 21.7931 49.1453C21.4107 49.1453 21.1047 48.8393 21.1047 48.4569C21.1047 48.0745 21.4107 47.7686 21.7931 47.7686C22.1755 47.7686 22.4814 48.0745 22.4814 48.4569Z" fill="#6D420D"/>
<path d="M17.8163 35.2445C18.2388 35.2445 18.5812 34.9021 18.5812 34.4797C18.5812 34.0573 18.2388 33.7148 17.8163 33.7148C17.3939 33.7148 17.0515 34.0573 17.0515 34.4797C17.0515 34.9021 17.3939 35.2445 17.8163 35.2445Z" fill="#6D420D"/>
<path d="M31.6407 29.8912C31.7171 30.809 30.9141 31.5547 29.8433 31.5547C28.7725 31.5547 27.9503 30.7325 28.0077 29.7191C28.0651 28.7057 28.8681 27.96 29.8051 28.0556C30.742 28.1512 31.5642 28.9543 31.6407 29.8912Z" fill="#F6B059"/>
<path d="M30.2646 31.1909C30.6853 31.1909 31.0677 31.0761 31.3736 30.8658C31.0486 31.2865 30.5132 31.5542 29.8631 31.5542C28.7923 31.5542 27.9701 30.732 28.0275 29.7377C28.0657 29.1258 28.3717 28.6096 28.8114 28.3228C28.6011 28.6096 28.4481 28.9729 28.429 29.3744C28.3908 30.3496 29.213 31.1718 30.2646 31.1909Z" fill="#DE814B"/>
<path d="M31.5447 35.0919C31.5064 35.7038 30.9902 36.22 30.3974 36.2774C29.8047 36.3156 29.3266 35.8185 29.3458 35.1684C29.3458 34.5183 29.862 33.9829 30.493 33.9829C31.124 33.9829 31.5829 34.48 31.5447 35.0919Z" fill="#F6B059"/>
<path d="M30.6264 36.0088C30.8558 35.9897 31.0853 35.8941 31.2765 35.7602C31.0662 36.047 30.7411 36.2382 30.3778 36.2765C29.7851 36.3147 29.3262 35.8176 29.3262 35.1675C29.3262 34.785 29.5174 34.4218 29.8042 34.2114C29.6703 34.4026 29.5747 34.6512 29.5747 34.8998C29.5556 35.5499 30.0336 36.047 30.6264 36.0088Z" fill="#DE814B"/>
<path d="M39.3658 35.5717C39.3084 36.2983 38.7157 36.9102 38.0082 36.9484C37.3199 36.9866 36.7654 36.413 36.7654 35.6482C36.7845 34.8833 37.3772 34.2715 38.123 34.2715C38.8687 34.2715 39.4232 34.8642 39.3658 35.5717Z" fill="#F6B059"/>
<path d="M38.2943 36.6606C38.5811 36.6415 38.8488 36.5267 39.0591 36.3546C38.8106 36.6988 38.4282 36.9283 38.0075 36.9474C37.3192 36.9856 36.7646 36.412 36.7646 35.6472C36.7646 35.1883 36.9941 34.7867 37.3192 34.519C37.1471 34.7485 37.0515 35.0353 37.0515 35.3412C37.0515 36.1252 37.606 36.6988 38.2943 36.6606Z" fill="#DE814B"/>
<path d="M78.365 47.2865C77.614 46.4798 76.9002 45.6454 76.2975 44.7182C75.8709 44.0507 78.3108 40.7869 77.8565 40.3234C77.4485 39.8969 77.1889 39.4426 77.0591 38.979C76.1504 39.2386 75.5201 39.4611 74.7041 40.3141C69.0203 46.1738 79.6189 55.0555 85.9425 49.1031C86.4061 48.6673 85.0189 48.1911 85.297 47.7182C84.4162 46.6984 79.2922 48.2785 78.365 47.2865Z" fill="#DE814B"/>
<path d="M85.1179 49.7014C79.2582 54.4577 69.7612 46.2523 74.907 40.0867C74.9904 39.994 75.0832 39.892 75.1759 39.7993C76.3534 38.6311 77.6607 38.084 78.9402 38.0006C79.07 37.9913 79.172 38.0933 79.1812 38.2138C79.1998 38.9741 76.7768 43.749 77.5 43.851C77.6112 43.8695 77.6761 43.9715 77.6483 44.0828C77.5741 44.3238 77.5463 44.5834 77.5463 44.8523C77.5741 46.2153 78.7053 47.3371 80.0682 47.3464C80.3464 47.3464 80.5482 46.9444 80.8078 46.8609C80.9098 46.8238 81.0211 46.8887 81.0396 47C81.2065 47.9086 86.351 44.4907 86.7404 44.3609C86.8517 44.3238 86.9722 44.3887 87 44.5C87.7603 47.2722 85.1179 49.7014 85.1179 49.7014Z" fill="#F6B059"/>
<path d="M79.5 47.5C79.5 48.1415 78.8034 48.2367 78.1618 48.2367C77.5203 48.2367 77.0001 47.8032 77.0001 47.1617C77.0001 46.5201 76.8585 46.5 77.5 46.5C78.1415 46.5 78.6766 46.8383 79.5 47.5Z" fill="#6D420D"/>
<path d="M84.9593 47.4797C84.9593 47.7468 84.765 47.8986 84.4979 47.8986C84.2307 47.8986 84 47.7468 84 47.4797C84 47.2125 84.2125 47 84.4797 47C84.7468 47 84.9593 47.2125 84.9593 47.4797Z" fill="#6D420D"/>
<path d="M76.496 42.9921C76.77 42.9921 76.9921 42.77 76.9921 42.496C76.9921 42.2221 76.77 42 76.496 42C76.2221 42 76 42.2221 76 42.496C76 42.77 76.2221 42.9921 76.496 42.9921Z" fill="#6D420D"/>
<path d="M100.089 47.0265C100.517 47.3172 100.559 47.9312 100.181 48.3988C99.8027 48.8664 99.1533 48.935 98.731 48.5521C98.3087 48.1691 98.2667 47.5551 98.6394 47.1797C99.012 46.8044 99.6531 46.729 100.089 47.0265Z" fill="#F6B059"/>
<path d="M100.17 48.0866C100.319 47.9029 100.404 47.6954 100.42 47.4875C100.489 47.778 100.417 48.1063 100.187 48.3902C99.8091 48.8578 99.1597 48.9264 98.7458 48.5502C98.4921 48.3174 98.3747 48.0015 98.4048 47.7082C98.4558 47.9013 98.5604 48.0964 98.729 48.2466C99.1413 48.6077 99.7907 48.539 100.17 48.0866Z" fill="#DE814B"/>
<path d="M102.326 48.9054C102.58 49.1382 102.623 49.5459 102.439 49.825C102.246 50.0974 101.86 50.1305 101.583 49.8926C101.299 49.663 101.248 49.2484 101.471 48.9729C101.694 48.6974 102.073 48.6726 102.326 48.9054Z" fill="#F6B059"/>
<path d="M102.402 49.6305C102.475 49.5235 102.514 49.3896 102.523 49.2588C102.574 49.452 102.543 49.6614 102.431 49.8336C102.239 50.1059 101.86 50.1307 101.576 49.9011C101.409 49.7661 101.318 49.5543 101.327 49.3547C101.363 49.4807 101.438 49.6103 101.547 49.698C101.824 49.936 102.21 49.9028 102.402 49.6305Z" fill="#DE814B"/>
<path d="M105.298 45.6591C105.595 45.9408 105.653 46.4157 105.42 46.7382C105.193 47.0522 104.747 47.0918 104.413 46.8217C104.086 46.5432 104.028 46.0683 104.291 45.7426C104.555 45.417 105.01 45.3842 105.298 45.6591Z" fill="#F6B059"/>
<path d="M105.395 46.5117C105.488 46.3797 105.533 46.2223 105.532 46.0697C105.594 46.2998 105.559 46.5478 105.419 46.7383C105.193 47.0523 104.747 47.0919 104.413 46.8218C104.212 46.6597 104.118 46.4177 104.116 46.1812C104.155 46.3374 104.247 46.4804 104.38 46.5885C104.723 46.8653 105.169 46.8258 105.395 46.5117Z" fill="#DE814B"/>
</svg>
